<svg xmlns="http://www.w3.org/2000/svg" viewBox="0 0 400 250">
  <rect width="400" height="250" fill="#0f0f11"/>
  <circle cx="100" cy="80" r="4" fill="#f59e0b"/>
  <circle cx="300" cy="60" r="4" fill="#f59e0b"/>
  <circle cx="250" cy="180" r="4" fill="#f59e0b"/>
  <circle cx="150" cy="190" r="4" fill="#f59e0b"/>
  <circle cx="80" cy="160" r="4" fill="#f59e0b"/>
  <circle cx="320" cy="150" r="4" fill="#f59e0b"/>
  <circle cx="200" cy="120" r="4" fill="#f59e0b"/>
  <circle cx="180" cy="100" r="4" fill="#f59e0b"/>
  <circle cx="280" cy="120" r="4" fill="#f59e0b"/>
  <circle cx="120" cy="140" r="4" fill="#f59e0b"/>
  <path d="M100 80 L180 100 L200 120 L280 120 L300 60 L320 150 L250 180 L150 190 L120 140 L80 160 Z" fill="none" stroke="#f59e0b" stroke-width="1.5" opacity="0.7"/>
  <path d="M100 80 L300 60 L320 150 L250 180 L150 190 L80 160 L120 140 L180 100 L200 120 L280 120 Z" fill="none" stroke="#10b981" stroke-width="0.8" opacity="0.4" stroke-dasharray="3,3"/>
  <text x="200" y="230" text-anchor="middle" fill="#06b6d4" font-family="monospace" font-size="9">Simulated Annealing TSP</text>
</svg>